<mxfile host="Electron" modified="2023-12-08T08:53:40.926Z" agent="Mozilla/5.0 (Windows NT 10.0; Win64; x64) AppleWebKit/537.36 (KHTML, like Gecko) draw.io/22.1.2 Chrome/114.0.5735.289 Electron/25.9.4 Safari/537.36" etag="5vKmu2jyk9MWqLZe9iGt" version="22.1.2" type="device">
  <diagram name="Page-1" id="74b105a0-9070-1c63-61bc-23e55f88626e">
    <mxGraphModel dx="4143.5" dy="2632" grid="1" gridSize="10" guides="1" tooltips="1" connect="1" arrows="1" fold="1" page="1" pageScale="1.5" pageWidth="1169" pageHeight="826" background="none" math="0" shadow="0">
      <root>
        <mxCell id="0" style=";html=1;" />
        <mxCell id="1" style=";html=1;" parent="0" />
        <mxCell id="10b056a9c633e61c-30" value="Title" style="text;strokeColor=none;fillColor=none;html=1;fontSize=24;fontStyle=1;verticalAlign=middle;align=center;" parent="1" vertex="1">
          <mxGeometry x="-670" y="-10" width="1590" height="40" as="geometry" />
        </mxCell>
        <mxCell id="To2LvBZBczLgQQMTYS_E-5" value="&lt;font style=&quot;font-size: 20px;&quot;&gt;&lt;b&gt;ChatGPT3.5/4.0&lt;/b&gt;&lt;/font&gt;" style="rounded=0;whiteSpace=wrap;html=1;fillColor=#d5e8d4;strokeColor=#82b366;" vertex="1" parent="1">
          <mxGeometry x="757" y="190" width="203" height="90" as="geometry" />
        </mxCell>
        <mxCell id="To2LvBZBczLgQQMTYS_E-6" value="&lt;span style=&quot;font-size: 20px;&quot;&gt;&lt;b&gt;LLAMA&lt;/b&gt;&lt;/span&gt;" style="rounded=0;whiteSpace=wrap;html=1;fillColor=#d5e8d4;strokeColor=#82b366;" vertex="1" parent="1">
          <mxGeometry x="757" y="300" width="203" height="90" as="geometry" />
        </mxCell>
        <mxCell id="To2LvBZBczLgQQMTYS_E-7" value="&lt;span style=&quot;font-size: 20px;&quot;&gt;&lt;b&gt;Bard&lt;/b&gt;&lt;/span&gt;" style="rounded=0;whiteSpace=wrap;html=1;fillColor=#d5e8d4;strokeColor=#82b366;" vertex="1" parent="1">
          <mxGeometry x="757" y="410" width="203" height="90" as="geometry" />
        </mxCell>
        <mxCell id="To2LvBZBczLgQQMTYS_E-8" value="" style="swimlane;startSize=0;fillColor=#99FF99;strokeColor=#6c8ebf;fontSize=23;" vertex="1" parent="1">
          <mxGeometry x="740" y="171" width="550" height="350" as="geometry" />
        </mxCell>
        <mxCell id="To2LvBZBczLgQQMTYS_E-12" value="Global大语言模型" style="text;html=1;align=center;verticalAlign=middle;resizable=0;points=[];autosize=1;strokeColor=none;fillColor=none;fontStyle=1;fontSize=29;" vertex="1" parent="1">
          <mxGeometry x="1000" y="378" width="260" height="50" as="geometry" />
        </mxCell>
        <mxCell id="To2LvBZBczLgQQMTYS_E-14" value="" style="swimlane;startSize=0;" vertex="1" parent="1">
          <mxGeometry x="740" y="600" width="530" height="180" as="geometry" />
        </mxCell>
        <mxCell id="To2LvBZBczLgQQMTYS_E-13" value="&lt;span style=&quot;font-size: 20px;&quot;&gt;&lt;b&gt;Transform类型自训练&lt;/b&gt;&lt;/span&gt;" style="rounded=0;whiteSpace=wrap;html=1;fillColor=#d5e8d4;strokeColor=#82b366;" vertex="1" parent="To2LvBZBczLgQQMTYS_E-14">
          <mxGeometry x="17" y="20" width="203" height="90" as="geometry" />
        </mxCell>
        <mxCell id="To2LvBZBczLgQQMTYS_E-15" value="Private大语言模型" style="text;html=1;align=center;verticalAlign=middle;resizable=0;points=[];autosize=1;strokeColor=none;fillColor=none;fontStyle=1;fontSize=28;" vertex="1" parent="To2LvBZBczLgQQMTYS_E-14">
          <mxGeometry x="260" y="80" width="260" height="50" as="geometry" />
        </mxCell>
        <mxCell id="To2LvBZBczLgQQMTYS_E-21" value="&lt;b&gt;&lt;font style=&quot;font-size: 31px;&quot;&gt;nginx&lt;/font&gt;&lt;/b&gt;" style="shape=ext;double=1;rounded=0;whiteSpace=wrap;html=1;fillColor=#dae8fc;strokeColor=#6c8ebf;" vertex="1" parent="1">
          <mxGeometry x="-31" y="364" width="120" height="80" as="geometry" />
        </mxCell>
        <mxCell id="To2LvBZBczLgQQMTYS_E-30" value="" style="swimlane;startSize=0;strokeColor=#BAC8D3;fontColor=#EEEEEE;fillColor=#09555B;" vertex="1" parent="1">
          <mxGeometry x="140" y="180" width="450" height="400" as="geometry" />
        </mxCell>
        <mxCell id="To2LvBZBczLgQQMTYS_E-33" value="&lt;b style=&quot;border-color: var(--border-color); color: rgb(0, 0, 0);&quot;&gt;&lt;font style=&quot;border-color: var(--border-color); font-size: 20px;&quot;&gt;用户角色定位&lt;/font&gt;&lt;/b&gt;" style="rounded=1;whiteSpace=wrap;html=1;strokeColor=#82b366;fillColor=#d5e8d4;" vertex="1" parent="To2LvBZBczLgQQMTYS_E-30">
          <mxGeometry x="30" y="100" width="150" height="70" as="geometry" />
        </mxCell>
        <mxCell id="To2LvBZBczLgQQMTYS_E-34" value="&lt;span style=&quot;font-size: 20px;&quot;&gt;&lt;b&gt;角色决定过滤行为&lt;/b&gt;&lt;/span&gt;" style="rounded=1;whiteSpace=wrap;html=1;strokeColor=#82b366;fillColor=#d5e8d4;" vertex="1" parent="To2LvBZBczLgQQMTYS_E-30">
          <mxGeometry x="30" y="180" width="150" height="70" as="geometry" />
        </mxCell>
        <mxCell id="To2LvBZBczLgQQMTYS_E-28" value="&lt;b style=&quot;border-color: var(--border-color);&quot;&gt;&lt;font style=&quot;border-color: var(--border-color); font-size: 31px;&quot;&gt;LLMClinet&lt;/font&gt;&lt;/b&gt;" style="rounded=1;whiteSpace=wrap;html=1;strokeColor=#82b366;fillColor=#d5e8d4;" vertex="1" parent="To2LvBZBczLgQQMTYS_E-30">
          <mxGeometry x="260" y="150" width="190" height="70" as="geometry" />
        </mxCell>
        <mxCell id="To2LvBZBczLgQQMTYS_E-35" value="&lt;b&gt;&lt;font style=&quot;font-size: 24px;&quot;&gt;l&lt;/font&gt;&lt;/b&gt;" style="text;html=1;align=center;verticalAlign=middle;resizable=0;points=[];autosize=1;strokeColor=none;fillColor=none;fontColor=#EEEEEE;" vertex="1" parent="To2LvBZBczLgQQMTYS_E-30">
          <mxGeometry x="210" y="35" width="30" height="40" as="geometry" />
        </mxCell>
        <mxCell id="To2LvBZBczLgQQMTYS_E-38" value="&lt;font color=&quot;#ff3333&quot; size=&quot;1&quot; style=&quot;&quot;&gt;&lt;b style=&quot;font-size: 25px;&quot;&gt;FlyingnetesGPT&lt;/b&gt;&lt;/font&gt;" style="text;html=1;strokeColor=none;fillColor=none;align=center;verticalAlign=middle;whiteSpace=wrap;rounded=0;fontColor=#EEEEEE;" vertex="1" parent="To2LvBZBczLgQQMTYS_E-30">
          <mxGeometry x="90" y="320" width="190" height="30" as="geometry" />
        </mxCell>
        <mxCell id="To2LvBZBczLgQQMTYS_E-39" style="edgeStyle=orthogonalEdgeStyle;rounded=0;orthogonalLoop=1;jettySize=auto;html=1;exitX=1;exitY=0.5;exitDx=0;exitDy=0;entryX=-0.004;entryY=0.562;entryDx=0;entryDy=0;entryPerimeter=0;strokeColor=#0B4D6A;" edge="1" parent="1" source="To2LvBZBczLgQQMTYS_E-21" target="To2LvBZBczLgQQMTYS_E-30">
          <mxGeometry relative="1" as="geometry" />
        </mxCell>
        <mxCell id="To2LvBZBczLgQQMTYS_E-40" style="edgeStyle=orthogonalEdgeStyle;rounded=0;orthogonalLoop=1;jettySize=auto;html=1;entryX=-0.006;entryY=0.551;entryDx=0;entryDy=0;entryPerimeter=0;strokeColor=#0B4D6A;" edge="1" parent="1" source="To2LvBZBczLgQQMTYS_E-28" target="To2LvBZBczLgQQMTYS_E-8">
          <mxGeometry relative="1" as="geometry" />
        </mxCell>
        <mxCell id="To2LvBZBczLgQQMTYS_E-41" style="edgeStyle=orthogonalEdgeStyle;rounded=0;orthogonalLoop=1;jettySize=auto;html=1;exitX=1;exitY=0.5;exitDx=0;exitDy=0;entryX=0;entryY=0.5;entryDx=0;entryDy=0;strokeColor=#0B4D6A;" edge="1" parent="1" source="To2LvBZBczLgQQMTYS_E-28" target="To2LvBZBczLgQQMTYS_E-14">
          <mxGeometry relative="1" as="geometry">
            <Array as="points">
              <mxPoint x="610" y="365" />
              <mxPoint x="610" y="690" />
            </Array>
          </mxGeometry>
        </mxCell>
      </root>
    </mxGraphModel>
  </diagram>
</mxfile>
